<?xml version="1.0" encoding="UTF-8" standalone="no"?>
<svg
   xmlns:dc="http://purl.org/dc/elements/1.1/"
   xmlns:cc="http://creativecommons.org/ns#"
   xmlns:rdf="http://www.w3.org/1999/02/22-rdf-syntax-ns#"
   xmlns:svg="http://www.w3.org/2000/svg"
   xmlns="http://www.w3.org/2000/svg"
   xmlns:sodipodi="http://sodipodi.sourceforge.net/DTD/sodipodi-0.dtd"
   xmlns:inkscape="http://www.inkscape.org/namespaces/inkscape"
   sodipodi:docname="image.svg"
   inkscape:version="1.0 (4035a4fb49, 2020-05-01)"
   inkscape:export-ydpi="51"
   inkscape:export-xdpi="51"
   inkscape:export-filename="C:\xampp\htdocs\THIE\public\img\image.png"
   id="svg8"
   version="1.1"
   viewBox="0 0 210 297"
   height="297mm"
   width="210mm">
  <defs
     id="defs2">
    <rect
       id="rect1169"
       height="33.292904"
       width="118.96123"
       y="157.12627"
       x="49.939356" />
  </defs>
  <sodipodi:namedview
     inkscape:window-maximized="1"
     inkscape:window-y="-8"
     inkscape:window-x="-8"
     inkscape:window-height="705"
     inkscape:window-width="1024"
     inkscape:snap-intersection-paths="true"
     inkscape:object-paths="true"
     inkscape:snap-others="false"
     showgrid="false"
     inkscape:document-rotation="0"
     inkscape:current-layer="layer1"
     inkscape:document-units="mm"
     inkscape:cy="420.26023"
     inkscape:cx="432.97811"
     inkscape:zoom="0.65166539"
     inkscape:pageshadow="2"
     inkscape:pageopacity="0.0"
     borderopacity="1.0"
     bordercolor="#666666"
     pagecolor="#ffffff"
     id="base" />
  <metadata
     id="metadata5">
    <rdf:RDF>
      <cc:Work
         rdf:about="">
        <dc:format>image/svg+xml</dc:format>
        <dc:type
           rdf:resource="http://purl.org/dc/dcmitype/StillImage" />
        <dc:title></dc:title>
      </cc:Work>
    </rdf:RDF>
  </metadata>
  <g
     id="layer1"
     inkscape:groupmode="layer"
     inkscape:label="Calque 1">
    <path
       inkscape:export-ydpi="51"
       inkscape:export-xdpi="51"
       transform="scale(0.26458333)"
       d="M 554.27539 93.882812 C 553.40935 93.883317 552.31709 93.884231 551.43164 93.884766 C 507.502 93.91129 480.63461 93.909711 410.3457 94.064453 C 401.67782 94.083536 401.65747 94.063997 392.94727 94.085938 C 360.23238 94.168342 333.48752 94.347162 302.81641 94.476562 C 302.69212 94.477087 302.57539 94.47799 302.45117 94.478516 C 274.6014 94.596271 243.43011 94.669086 220.56641 94.833984 C 225.13192 103.61595 258.66702 166.13068 278.88867 203.96875 C 305.28368 203.8399 330.62751 203.70553 359.73047 203.61719 C 360.15937 203.61589 360.49271 203.61262 360.92188 203.61133 C 372.45786 203.57654 381.32298 203.50194 392.94727 203.47266 C 401.49222 203.45113 401.51069 203.46994 410.01562 203.45117 C 438.46862 203.38837 440.91936 203.41548 467.11719 203.37891 C 478.59778 203.36288 481.47745 203.35962 492.14062 203.34766 C 493.07361 203.34661 493.40432 203.34477 494.33008 203.34375 C 516.0387 163.74552 554.25826 93.914009 554.27539 93.882812 z "
       style="opacity:0.989;fill:#ffffff;stroke:#1e90ff;stroke-width:0;stroke-linecap:round;stroke-linejoin:round;stroke-miterlimit:4;stroke-dasharray:none;fill-opacity:1"
       id="path1123" />
    <path
       inkscape:export-ydpi="51"
       inkscape:export-xdpi="51"
       d="m 156.52009,53.769295 c -5.17638,0.0016 -15.26126,0.02078 -26.44127,0.03307 -1.33928,2.442924 -2.16667,3.958206 -3.69797,6.753076 -2.53431,4.625486 -3.22525,5.885294 -6.12056,11.176061 -3.66373,6.694935 -3.87601,7.057475 -7.74474,14.142289 -0.045,0.08229 -0.0829,0.152217 -0.12351,0.226859 3.75348,-6.951136 3.99716,-7.37448 7.5892,-14.011032 -7.11579,0.01095 -7.70403,8.76e-4 -15.10915,0.01861 -1.2e-4,-2.2e-4 -4e-4,-2.99e-4 -5.2e-4,-5.19e-4 -0.41023,0.001 -0.40928,3.5e-5 -0.81959,0.001 -1.8547,0.0047 -3.25999,0.01703 -5.109774,0.02222 -2.81415,5.247532 -2.8326,5.276593 -5.78724,10.788489 -0.90599,1.690124 -1.09181,2.047541 -1.99936,3.740856 0.90764,1.693487 1.09328,2.051079 1.99936,3.741372 2.9225,5.451941 2.93814,5.476 5.7242,10.671174 1.872474,-0.005 3.295234,-0.0175 5.172814,-0.0222 0.45429,-10e-4 0.45326,4e-5 0.90744,-10e-4 0.0682,-0.12661 0.12419,-0.23162 0.19172,-0.35708 7.49296,-0.0181 8.00064,-0.008 15.13241,-0.0191 -0.0905,-0.16712 -0.10084,-0.18592 -0.18707,-0.3452 0.0871,0.15918 0.0978,0.17838 0.18913,0.3452 -9.7e-4,0 -0.001,0 -0.002,0 2.88225,5.26686 3.57091,6.52373 6.09472,11.13007 1.53613,2.80369 2.36703,4.32486 3.70985,6.77426 11.16365,-0.0123 21.23005,-0.0315 26.40665,-0.0331 l -9.29865,-17.90485 -7.50859,-14.458537 0.001,-0.0021 7.52048,-14.481286 z"
       style="opacity:0.989;fill:#ffffff;fill-opacity:1;stroke:#ff8c00;stroke-width:0;stroke-linecap:round;stroke-linejoin:round;stroke-miterlimit:4;stroke-dasharray:none"
       id="path1111" />
    <path
       inkscape:export-ydpi="51"
       inkscape:export-xdpi="51"
       transform="scale(0.26458333)"
       d="M 491.67188 448.16797 C 481.15796 448.17982 478.34259 448.18147 467.03906 448.19727 C 440.71077 448.23405 438.2586 448.20625 409.66406 448.26953 C 401.33275 448.28797 401.31622 448.26993 392.94727 448.29102 C 381.20175 448.3206 372.24227 448.39643 360.58789 448.43164 C 360.34169 448.43238 360.15041 448.43285 359.9043 448.43359 C 330.66305 448.52227 305.19298 448.65755 278.68555 448.78711 C 258.40815 486.73013 224.51157 549.91497 220.0918 558.42773 C 243.02583 558.26175 274.38688 558.19063 302.36523 558.07227 C 333.16905 557.94195 360.06862 557.76251 392.94727 557.67969 C 430.67161 557.58466 433.82961 557.63163 468.30078 557.58398 C 506.0796 557.53176 525.06352 557.49617 550.88477 557.48047 C 550.60835 556.97179 513.24091 487.9395 491.67188 448.16797 z "
       style="opacity:0.989;fill:#ffffff;stroke:#ff8c00;stroke-width:0;stroke-linecap:round;stroke-linejoin:round;stroke-miterlimit:4;stroke-dasharray:none;fill-opacity:1"
       id="path1097" />
    <circle
       r="0"
       cy="28.726189"
       cx="111.125"
       style="fill:#0d6efd;stroke:#000000;stroke-width:0.264583"
       id="path843" />
    <text
       style="line-height:1.25;font-family:sans-serif;font-size:11.28888889px;word-spacing:0px;-inkscape-font-specification:'sans-serif, Bold';font-weight:bold;white-space:pre;shape-inside:url(#rect1169);"
       id="text1167"
       xml:space="preserve" />
  </g>
</svg>
