<?xml version="1.0" encoding="UTF-8" standalone="no"?>
<svg
   xmlns:dc="http://purl.org/dc/elements/1.1/"
   xmlns:cc="http://creativecommons.org/ns#"
   xmlns:rdf="http://www.w3.org/1999/02/22-rdf-syntax-ns#"
   xmlns:svg="http://www.w3.org/2000/svg"
   xmlns="http://www.w3.org/2000/svg"
   xmlns:sodipodi="http://sodipodi.sourceforge.net/DTD/sodipodi-0.dtd"
   xmlns:inkscape="http://www.inkscape.org/namespaces/inkscape"
   inkscape:version="1.0 (4035a4fb49, 2020-05-01)"
   sodipodi:docname="logo.svg"
   id="svg8"
   preserveAspectRatio="xMidYMid meet"
   viewBox="0 0 312.000000 339.000000"
   height="339.000000pt"
   width="312.000000pt"
   version="1.0">
  <metadata
     id="metadata14">
    <rdf:RDF>
      <cc:Work
         rdf:about="">
        <dc:format>image/svg+xml</dc:format>
        <dc:type
           rdf:resource="http://purl.org/dc/dcmitype/StillImage" />
        <dc:title></dc:title>
      </cc:Work>
    </rdf:RDF>
  </metadata>
  <defs
     id="defs12" />
  <sodipodi:namedview
     inkscape:current-layer="g6"
     inkscape:window-maximized="1"
     inkscape:window-y="-8"
     inkscape:window-x="-8"
     inkscape:cy="271.0308"
     inkscape:cx="206.38592"
     inkscape:zoom="1.0044248"
     showgrid="false"
     id="namedview10"
     inkscape:window-height="705"
     inkscape:window-width="1024"
     inkscape:pageshadow="2"
     inkscape:pageopacity="0"
     guidetolerance="10"
     gridtolerance="10"
     objecttolerance="10"
     borderopacity="1"
     bordercolor="#666666"
     pagecolor="#ffffff" />
  <g
     id="g6"
     stroke="none"
     fill="#000000"
     transform="translate(0.000000,339.000000) scale(0.100000,-0.100000)">
    <path
       style="fill:#0d6efd;stroke-width:0.96119"
       id="path2"
       d="M 72.065789,1942.2826 C 65.300397,754.06997 67.233366,-4.9331638 77.864696,-14.492399 90.428996,-26.919402 910.97438,-31.699019 1935.448,-25.007555 l 1147.2172,6.691464 V 1596.2384 3210.7929 H 1580.7481 78.83118 Z M 2371.3325,2999.5338 c -109.2127,-197.8761 -606.9523,-624.2179 -993.5461,-849.8158 -45.4248,-26.7659 -83.1177,-52.5758 -83.1177,-57.3554 0,-13.383 84.0842,-11.4711 280.2805,4.7796 374.996,32.5014 410.756,40.1488 671.7068,148.1681 190.3975,78.3858 264.8168,88.9009 188.4645,25.81 -62.8215,-52.5759 -411.7224,-215.0828 -579.8907,-269.5704 -207.7942,-66.9147 -404.9571,-194.0524 -932.6576,-597.4521 -148.83862,-113.7549 -297.67725,-225.5979 -331.50421,-249.496 l -61.85501,-42.0606 288.97889,-5.7356 c 158.50346,-3.8237 329.57123,-11.471 379.82843,-19.1184 128.5424,-17.2066 594.388,-18.1626 671.7067,0 266.7498,59.2672 566.36,175.8898 705.5338,273.394 31.894,21.9863 80.2182,51.6198 106.3133,65.0028 71.5198,35.3692 207.7941,86.0332 214.5595,79.3416 10.6314,-10.5151 -39.6258,-55.4435 -125.643,-111.843 -204.8947,-133.8293 -674.6062,-340.3087 -967.451,-424.42988 -97.6149,-28.6777 -139.1738,-35.36919 -283.18,-44.92839 -175.9002,-10.51516 -515.1362,-0.95595 -743.22657,21.98619 -111.14572,11.4711 -392.39273,5.7356 -511.27033,-9.55924 -73.45283,-10.51515 -111.14572,-5.7355 -111.14572,13.38294 0,5.7356 35.75992,33.4573 80.21821,60.22308 43.49181,26.7659 133.37487,89.8568 200.06231,139.5648 552.82916,420.6063 829.2437,614.6588 1042.8368,732.2374 58.9556,33.4572 106.3133,62.1349 103.4138,64.0468 -1.9329,1.9118 -80.2182,-2.8677 -173.9672,-11.4711 -285.1129,-23.898 -440.7169,-16.2506 -448.44877,23.8981 -0.96649,9.5593 17.39672,26.7659 48.32427,44.9284 28.028,16.2507 110.1792,64.0469 181.699,106.1075 251.286,147.2122 445.5494,292.5126 650.4441,489.4327 142.0733,135.7411 240.6547,252.3639 263.8503,312.587 14.4973,36.3251 24.1621,43.9724 103.4139,85.0772 48.3242,24.854 109.2127,52.5757 136.2743,62.1349 61.855,21.0304 66.6874,10.5152 28.9945,-59.2672 z M 654.85598,566.70899 c 3.86593,-24.854 -18.36321,-32.50139 -96.64846,-32.50139 h -56.0561 V 491.19105 448.1745 h 56.0561 c 66.68743,0 98.58142,-7.64739 98.58142,-23.89808 0,-16.2507 -31.89399,-23.89809 -98.58142,-23.89809 h -56.0561 v -62.13502 -61.17909 l 75.38579,-2.86777 c 68.6204,-2.86777 74.41931,-4.77961 77.31877,-23.89808 3.86593,-27.72178 -18.36321,-33.45732 -118.87761,-29.63363 l -77.31876,2.86777 -2.89945,184.49321 -1.93297,184.49321 98.58142,-2.86777 c 92.78252,-2.86777 99.54791,-3.82369 102.44737,-22.94217 z M 1014.3882,508.39767 V 448.1745 h 71.5199 70.5533 l 8.6984,69.7824 c 6.7654,50.66394 12.5643,68.82649 23.1956,68.82649 18.3632,0 28.9946,-139.56481 20.2962,-272.43815 -4.8324,-71.69426 -8.6984,-90.81273 -20.2962,-90.81273 -11.5978,0 -16.4302,20.07439 -23.1956,88.90088 l -8.6984,87.94494 h -70.5533 -71.5199 l -0.9664,-73.60609 c 0,-78.38571 -9.6649,-120.44634 -22.2292,-100.37196 -8.69836,14.33885 -8.69836,342.22056 0,356.55941 12.5643,20.07439 23.1956,-14.33885 23.1956,-74.56202 z m 372.0965,70.73832 c 16.4303,-12.427 16.4303,-14.33884 -5.7989,-29.63362 -21.2626,-14.33884 -23.1956,-21.98623 -26.095,-123.3141 -3.866,-103.23973 1.9329,-132.87335 28.9945,-172.0662 10.6313,-13.38294 9.6648,-18.16255 -1.933,-25.80994 -22.2291,-14.33885 -71.5198,-11.47108 -92.7825,4.77962 -18.3632,13.38292 -17.3967,14.33885 5.7989,32.50139 22.2292,18.16254 23.1956,21.98624 24.1621,139.56481 0,116.62264 -0.9665,122.35819 -23.1956,139.56481 -18.3632,15.29477 -20.2962,21.03031 -10.6313,32.50139 14.4972,18.16255 77.3187,19.11847 101.4808,1.91184 z m 274.4817,-2.86777 c 35.7599,-13.38292 58.9555,-44.92839 45.4247,-58.31132 -2.8994,-2.86777 -24.1621,1.91185 -47.3577,10.51517 -59.922,21.98623 -96.6485,20.07438 -125.643,-9.55925 -29.961,-29.63361 -39.6259,-70.73832 -33.827,-144.34442 3.866,-43.97247 9.6649,-58.31132 30.9275,-76.47387 40.5924,-33.45731 69.5869,-37.281 119.8441,-13.38292 28.9946,14.33884 46.3913,18.16254 53.1567,11.47108 17.3967,-17.20662 -18.3632,-56.39948 -60.8885,-67.87056 -110.1793,-29.63362 -192.3305,45.88432 -193.297,174.93397 0,142.43258 93.749,219.86237 211.6602,173.02212 z m 754.8244,2.86777 c 13.5308,-6.69146 26.0951,-21.98623 27.0616,-34.41323 2.8994,-20.0744 0.9665,-21.98624 -24.1621,-16.25069 -106.3133,24.854 -142.0733,12.427 -136.2744,-44.9284 2.8995,-26.76586 7.7319,-30.58956 70.5534,-50.66394 80.2182,-25.80994 101.4809,-47.79617 101.4809,-104.19565 0,-33.45732 -5.7989,-46.84024 -28.9945,-70.73832 -55.0897,-54.48763 -176.8667,-47.79617 -197.1629,11.47108 -12.5643,34.41324 -0.9665,42.06063 33.827,21.98623 32.8604,-19.11846 109.2127,-22.94216 129.5089,-5.73554 19.3297,16.25069 18.3632,51.61986 -1.933,68.82648 -9.6648,7.64739 -40.5923,22.94216 -69.5869,32.5014 -53.1566,18.16254 -97.6149,59.26724 -97.6149,88.90087 0,36.32508 23.1956,80.29756 52.1902,97.50417 34.7934,21.03032 105.3468,23.89809 141.1067,5.73554 z M 932.23704,562.8853 c 0,-9.55923 -15.46375,-17.20662 -50.25719,-22.94216 l -51.22368,-8.60331 V 391.77502 c 0,-104.19564 -3.86594,-145.30035 -13.53079,-158.68327 -12.5643,-17.20662 -13.53078,-17.20662 -24.16211,2.86777 -6.76539,11.47108 -10.63133,73.6061 -10.63133,157.72735 v 138.60889 l -48.32423,6.69146 c -26.09508,3.82369 -50.2572,10.51515 -54.12314,15.29477 -13.53078,22.94216 12.5643,27.72177 129.50894,25.80993 101.48087,-2.86777 122.74353,-5.73554 122.74353,-17.20662 z M 2688.3395,443.39488 c 45.4247,-133.82926 63.7879,-211.25906 52.1901,-221.77421 -9.6648,-10.51516 -33.8269,17.20661 -45.4248,52.57578 -13.5307,43.97248 -32.8604,59.26725 -70.5533,59.26725 -56.0561,0 -67.6539,-8.60331 -87.9501,-60.22317 -20.2962,-50.66394 -53.1567,-74.56202 -53.1567,-37.28101 0,22.94216 84.0842,282.9533 103.4139,320.23432 9.6648,19.11846 19.3297,25.80992 34.7934,23.89808 18.3632,-2.86777 28.0281,-22.94216 66.6875,-136.69704 z m -678.4722,-43.01655 c 43.4918,-26.76585 -57.9891,-64.04686 -106.3133,-38.23693 -21.2627,11.47108 -26.0951,34.41324 -6.7654,41.1047 20.2962,8.60331 97.6149,6.69146 113.0787,-2.86777 z" />
    <path
       style="fill:#0d6efd"
       id="path4"
       d="m 2597.0661,443.26432 c -11,-36 -19,-70 -16,-75 3,-4 23,-8 45,-8 28,0 39,4 39,15 0,22 -34,135 -40,135 -3,0 -16,-30 -28,-67 z" />
  </g>
</svg>
